<svg width="32" height="33" viewBox="0 0 32 33" fill="none" xmlns="http://www.w3.org/2000/svg">
<path d="M11.1865 25.1535V11.6068C11.1865 11.0735 11.3465 10.5535 11.6399 10.1135L15.2799 4.70013C15.8532 3.83346 17.2799 3.22013 18.4932 3.67346C19.7999 4.11346 20.6665 5.58013 20.3865 6.8868L19.6932 11.2468C19.6399 11.6468 19.7465 12.0068 19.9732 12.2868C20.1999 12.5401 20.5332 12.7001 20.8932 12.7001H26.3732C27.4265 12.7001 28.3332 13.1268 28.8665 13.8735C29.3732 14.5935 29.4665 15.5268 29.1332 16.4735L25.8532 26.4601C25.4399 28.1135 23.6399 29.4601 21.8532 29.4601H16.6532C15.7599 29.4601 14.5065 29.1535 13.9332 28.5801L12.2265 27.2601C11.5732 26.7668 11.1865 25.9801 11.1865 25.1535Z" fill="#5BCE89"/>
<path d="M6.9465 9.00684H5.57317C3.5065 9.00684 2.6665 9.80684 2.6665 11.7802V25.1935C2.6665 27.1668 3.5065 27.9668 5.57317 27.9668H6.9465C9.01317 27.9668 9.85317 27.1668 9.85317 25.1935V11.7802C9.85317 9.80684 9.01317 9.00684 6.9465 9.00684Z" fill="#5BCE89"/>
</svg>
