<svg width="24" height="25" viewBox="0 0 24 25" fill="none" xmlns="http://www.w3.org/2000/svg">
<path fill-rule="evenodd" clip-rule="evenodd" d="M10.2071 3.76718C10.5206 3.2198 11.0562 2.49561 12.0002 2.49561C12.9441 2.49561 13.4797 3.21981 13.7932 3.76718C14.1216 4.34069 14.4507 5.16254 14.836 6.12481L14.9035 6.29333C15.1429 6.89116 15.2957 7.2694 15.4414 7.54693C15.5763 7.80413 15.6667 7.89667 15.7405 7.95163C15.8142 8.00652 15.9284 8.06637 16.2128 8.12168C16.5198 8.1814 16.9252 8.21899 17.5658 8.27645L17.868 8.30355C18.8165 8.38857 19.6369 8.4621 20.242 8.60513C20.8368 8.74571 21.6255 9.04293 21.9114 9.89431C22.1971 10.745 21.7485 11.4583 21.3597 11.9299C20.964 12.41 20.3547 12.9651 19.6502 13.607L19.0893 14.1181C18.6951 14.4773 18.4466 14.7049 18.2697 14.8966C18.1053 15.0748 18.0522 15.1708 18.0246 15.2416C18.0072 15.286 17.9928 15.3315 17.9814 15.3777C17.9633 15.4516 17.9514 15.5609 17.9833 15.8017C18.0176 16.0606 18.0897 16.3901 18.2051 16.9111L18.2876 17.2837C18.482 18.161 18.6455 18.8989 18.7093 19.4656C18.767 19.9771 18.8018 20.7313 18.3004 21.2905C18.0381 21.583 17.697 21.7938 17.3179 21.8974C16.5923 22.0957 15.9336 21.725 15.5032 21.4439C15.0261 21.1324 14.441 20.6548 13.7455 20.0872L13.699 20.0492C13.2017 19.6433 12.8818 19.3836 12.6196 19.2079C12.3722 19.0422 12.2509 19.0043 12.1713 18.9915C12.0579 18.9734 11.9424 18.9734 11.829 18.9915C11.7494 19.0043 11.6281 19.0422 11.3807 19.2079C11.1185 19.3836 10.7986 19.6433 10.3013 20.0492L10.2547 20.0872C9.55933 20.6548 8.97424 21.1324 8.49715 21.4439C8.06668 21.725 7.40797 22.0957 6.68243 21.8974C6.30329 21.7938 5.96221 21.583 5.69992 21.2905C5.19852 20.7313 5.23335 19.9771 5.29099 19.4656C5.35484 18.8989 5.51833 18.161 5.71271 17.2836L5.79522 16.9111C5.91065 16.3901 5.98276 16.0606 6.01704 15.8017C6.04891 15.5609 6.03704 15.4516 6.01886 15.3777C6.00747 15.3314 5.99307 15.286 5.97575 15.2416C5.94814 15.1708 5.89503 15.0748 5.73059 14.8966C5.55367 14.7049 5.3052 14.4773 4.91102 14.1181L4.35011 13.607C3.64558 12.9651 3.03634 12.41 2.64062 11.9299C2.2518 11.4583 1.80326 10.745 2.08892 9.89431C2.3748 9.04293 3.16352 8.74571 3.75829 8.60513C4.3634 8.4621 5.18386 8.38856 6.13234 8.30355C6.15819 8.30123 6.18415 8.29891 6.21019 8.29657L6.43446 8.27645C7.07507 8.21899 7.48049 8.1814 7.78755 8.12168C8.07193 8.06637 8.18613 8.00652 8.25983 7.95163C8.33364 7.89667 8.42397 7.80413 8.55895 7.54693C8.7046 7.2694 8.85739 6.89116 9.09681 6.29333L9.13503 6.1979C9.14482 6.17345 9.15458 6.14908 9.1643 6.1248C9.54961 5.16254 9.87869 4.34069 10.2071 3.76718Z" fill="#7B7B7B"/>
</svg>
