<svg width="25" height="15" viewBox="0 0 25 15" fill="none" xmlns="http://www.w3.org/2000/svg">
<path d="M15.1383 7.2265C14.6811 7.05626 14.6811 6.40606 14.6528 5.95328C14.5385 4.34047 15.1099 1.87824 14.4242 0.831412C13.9387 0.208384 11.5954 0.265435 10.1673 0.350558C9.7669 0.407608 9.28142 0.491827 8.93856 0.662073C8.59571 0.832319 8.25286 1.11485 8.25286 1.36932C8.25286 1.73698 9.11045 1.68083 9.42404 2.16169C9.7669 2.67152 9.7669 3.77449 9.7669 4.68006C9.7669 5.72689 9.59501 7.11421 9.16713 7.17036C8.50977 7.19843 8.13857 6.54733 7.79572 6.06648C7.11001 5.13284 6.42431 3.97191 5.90957 2.83995C5.65266 2.2459 5.50912 1.5948 5.13793 1.34034C4.5665 0.943703 3.53795 0.91563 2.53773 0.943703C1.62346 0.971775 0.308729 0.85858 0.0518181 1.39648C-0.148408 1.99053 0.280387 2.55651 0.508955 3.03827C1.68014 5.55664 2.93727 7.76441 4.48056 9.85807C5.90957 11.8105 7.25173 13.3671 9.88027 14.1876C10.6236 14.414 13.8802 15.0651 14.5376 14.1876C14.7661 13.848 14.7095 13.0837 14.8237 12.5177C14.938 11.9517 15.0807 11.3858 15.6237 11.3577C16.0809 11.3296 16.3378 11.7253 16.624 12.0088C16.9385 12.3203 17.1954 12.5748 17.4239 12.8582C17.967 13.3961 18.5384 14.1314 19.2241 14.4149C20.1668 14.8115 21.6241 14.6983 22.9955 14.6413C24.11 14.6132 24.91 14.3868 24.996 13.7357C25.0536 13.2259 24.4812 12.4905 24.1384 12.0658C23.2808 11.019 22.8812 10.7075 21.9094 9.74488C21.4806 9.32017 20.9375 8.86739 20.9375 8.35846C20.9092 8.04695 21.1661 7.76441 21.3946 7.4529C22.3949 5.98135 23.3951 4.93452 24.3093 3.40593C24.5663 2.95315 25.1669 1.90632 24.9384 1.39648C24.6815 0.830507 23.2524 0.999847 22.3665 0.999847C21.2237 0.999847 19.738 0.914724 19.4518 1.14112C18.9087 1.50877 18.6802 2.10373 18.4232 2.66971C17.8518 3.97191 17.0802 5.30128 16.2802 6.29196C15.994 6.63155 15.4519 7.33879 15.1373 7.2256L15.1383 7.2265Z" fill="white"/>
</svg>
