<svg width="33" height="32" viewBox="0 0 33 32" fill="none" xmlns="http://www.w3.org/2000/svg">
<path d="M26.5133 7.80032L18.5933 3.22699C17.3 2.48033 15.7 2.48033 14.3933 3.22699L6.48664 7.80032C5.19331 8.54699 4.39331 9.93366 4.39331 11.4403V20.5603C4.39331 22.0537 5.19331 23.4403 6.48664 24.2003L14.4066 28.7737C15.7 29.5203 17.3 29.5203 18.6066 28.7737L26.5266 24.2003C27.82 23.4537 28.6199 22.067 28.6199 20.5603V11.4403C28.6066 9.93366 27.8066 8.56033 26.5133 7.80032ZM15.5 10.3337C15.5 9.78699 15.9533 9.33366 16.5 9.33366C17.0466 9.33366 17.5 9.78699 17.5 10.3337V17.3337C17.5 17.8803 17.0466 18.3337 16.5 18.3337C15.9533 18.3337 15.5 17.8803 15.5 17.3337V10.3337ZM17.7266 22.1737C17.66 22.3337 17.5666 22.4803 17.4466 22.6137C17.1933 22.867 16.86 23.0003 16.5 23.0003C16.3266 23.0003 16.1533 22.9603 15.9933 22.8937C15.82 22.827 15.6866 22.7337 15.5533 22.6137C15.4333 22.4803 15.34 22.3337 15.26 22.1737C15.1933 22.0137 15.1666 21.8403 15.1666 21.667C15.1666 21.3203 15.3 20.9737 15.5533 20.7203C15.6866 20.6003 15.82 20.507 15.9933 20.4403C16.4866 20.227 17.0733 20.347 17.4466 20.7203C17.5666 20.8537 17.66 20.987 17.7266 21.1603C17.7933 21.3203 17.8333 21.4937 17.8333 21.667C17.8333 21.8403 17.7933 22.0137 17.7266 22.1737Z" fill="#F4371C"/>
</svg>
