<svg width="23" height="23" viewBox="0 0 23 23" fill="none" xmlns="http://www.w3.org/2000/svg">
<path fill-rule="evenodd" clip-rule="evenodd" d="M17.9031 16.0332C17.638 16.7836 16.5842 17.4044 15.7438 17.586C15.1685 17.7081 14.4183 17.8047 11.8905 16.7572C9.0514 15.581 5.109 11.3911 5.109 8.60283C5.109 7.1834 5.9274 5.53057 7.3585 5.53057C8.0471 5.53057 8.1989 5.54399 8.4255 6.08755C8.6906 6.72795 9.33741 8.30574 9.4144 8.46748C9.7323 9.13098 9.09099 9.51939 8.62569 10.0971C8.47719 10.2709 8.30891 10.4589 8.497 10.7824C8.684 11.0993 9.3308 12.1535 10.2812 12.9996C11.5088 14.0933 12.5043 14.4425 12.8607 14.5911C13.1258 14.7011 13.4426 14.6755 13.6362 14.4686C13.8815 14.2034 14.1862 13.7635 14.4964 13.3299C14.7153 13.0196 14.9936 12.9809 15.2851 13.0909C15.482 13.1591 17.9845 14.3213 18.0901 14.5073C18.1682 14.6426 18.1682 15.2828 17.9031 16.0332ZM11.5022 0.5H11.4967C5.43239 0.5 0.5 5.43389 0.5 11.5C0.5 13.9053 1.27551 16.1369 2.59441 17.9469L1.22381 22.0343L5.45111 20.6835C7.19021 21.8344 9.2659 22.5 11.5022 22.5C17.5665 22.5 22.5 17.5661 22.5 11.5C22.5 5.43389 17.5665 0.5 11.5022 0.5Z" fill="white"/>
</svg>
