<svg width="207" height="44" viewBox="0 0 207 44" fill="none" xmlns="http://www.w3.org/2000/svg">
<path d="M122.936 12.432H129.608V21H128.468V13.392H124.076V21H122.936V12.432ZM131.347 14.796H132.367V15.636H132.391C132.559 15.292 132.823 15.044 133.183 14.892C133.543 14.732 133.939 14.652 134.371 14.652C134.851 14.652 135.267 14.74 135.619 14.916C135.979 15.092 136.275 15.332 136.507 15.636C136.747 15.932 136.927 16.276 137.047 16.668C137.167 17.06 137.227 17.476 137.227 17.916C137.227 18.364 137.167 18.784 137.047 19.176C136.935 19.56 136.759 19.9 136.519 20.196C136.287 20.484 135.991 20.712 135.631 20.88C135.279 21.048 134.867 21.132 134.395 21.132C134.235 21.132 134.063 21.116 133.879 21.084C133.695 21.052 133.511 21 133.327 20.928C133.143 20.856 132.967 20.76 132.799 20.64C132.639 20.512 132.503 20.356 132.391 20.172H132.367V23.364H131.347V14.796ZM134.287 20.244C134.631 20.244 134.923 20.176 135.163 20.04C135.403 19.904 135.595 19.724 135.739 19.5C135.883 19.276 135.987 19.02 136.051 18.732C136.115 18.444 136.147 18.148 136.147 17.844C136.147 17.556 136.107 17.276 136.027 17.004C135.955 16.724 135.839 16.476 135.679 16.26C135.527 16.044 135.327 15.872 135.079 15.744C134.839 15.616 134.555 15.552 134.227 15.552C133.883 15.552 133.591 15.62 133.351 15.756C133.111 15.892 132.915 16.072 132.763 16.296C132.611 16.512 132.499 16.76 132.427 17.04C132.363 17.32 132.331 17.604 132.331 17.892C132.331 18.196 132.367 18.492 132.439 18.78C132.511 19.06 132.623 19.308 132.775 19.524C132.935 19.74 133.139 19.916 133.387 20.052C133.635 20.18 133.935 20.244 134.287 20.244ZM141.1 21.132C140.604 21.132 140.168 21.052 139.792 20.892C139.424 20.724 139.112 20.496 138.856 20.208C138.6 19.912 138.408 19.568 138.28 19.176C138.152 18.784 138.088 18.36 138.088 17.904C138.088 17.448 138.152 17.024 138.28 16.632C138.408 16.232 138.6 15.888 138.856 15.6C139.112 15.304 139.424 15.072 139.792 14.904C140.168 14.736 140.604 14.652 141.1 14.652C141.588 14.652 142.02 14.736 142.396 14.904C142.772 15.072 143.088 15.304 143.344 15.6C143.6 15.888 143.792 16.232 143.92 16.632C144.048 17.024 144.112 17.448 144.112 17.904C144.112 18.36 144.048 18.784 143.92 19.176C143.792 19.568 143.6 19.912 143.344 20.208C143.088 20.496 142.772 20.724 142.396 20.892C142.02 21.052 141.588 21.132 141.1 21.132ZM141.1 20.244C141.364 20.244 141.612 20.192 141.844 20.088C142.084 19.984 142.292 19.836 142.468 19.644C142.644 19.444 142.78 19.2 142.876 18.912C142.98 18.616 143.032 18.28 143.032 17.904C143.032 17.528 142.98 17.196 142.876 16.908C142.78 16.612 142.644 16.364 142.468 16.164C142.292 15.964 142.084 15.812 141.844 15.708C141.612 15.604 141.364 15.552 141.1 15.552C140.836 15.552 140.584 15.604 140.344 15.708C140.112 15.812 139.908 15.964 139.732 16.164C139.556 16.364 139.416 16.612 139.312 16.908C139.216 17.196 139.168 17.528 139.168 17.904C139.168 18.28 139.216 18.616 139.312 18.912C139.416 19.2 139.556 19.444 139.732 19.644C139.908 19.836 140.112 19.984 140.344 20.088C140.584 20.192 140.836 20.244 141.1 20.244ZM145.315 14.796H146.335V19.86L149.263 14.796H150.571V21H149.551V15.936L146.623 21H145.315V14.796ZM154.392 21.132C153.568 21.132 152.924 20.948 152.46 20.58C151.996 20.212 151.744 19.688 151.704 19.008H152.736C152.768 19.464 152.936 19.792 153.24 19.992C153.544 20.192 153.924 20.292 154.38 20.292C154.868 20.292 155.244 20.188 155.508 19.98C155.772 19.772 155.904 19.508 155.904 19.188C155.904 18.876 155.804 18.632 155.604 18.456C155.404 18.28 155.064 18.192 154.584 18.192H153.756V17.364H154.416C154.776 17.364 155.084 17.292 155.34 17.148C155.596 16.996 155.724 16.736 155.724 16.368C155.724 16.136 155.612 15.932 155.388 15.756C155.172 15.58 154.848 15.492 154.416 15.492C154.232 15.492 154.048 15.512 153.864 15.552C153.688 15.592 153.528 15.656 153.384 15.744C153.24 15.832 153.12 15.948 153.024 16.092C152.928 16.236 152.868 16.412 152.844 16.62H151.812C151.836 16.236 151.928 15.92 152.088 15.672C152.248 15.416 152.448 15.216 152.688 15.072C152.928 14.92 153.2 14.812 153.504 14.748C153.808 14.684 154.116 14.652 154.428 14.652C154.748 14.652 155.048 14.684 155.328 14.748C155.608 14.812 155.852 14.916 156.06 15.06C156.276 15.196 156.444 15.368 156.564 15.576C156.692 15.784 156.756 16.032 156.756 16.32C156.756 16.68 156.652 16.972 156.444 17.196C156.244 17.42 156.016 17.56 155.76 17.616V17.64C155.904 17.664 156.048 17.712 156.192 17.784C156.336 17.856 156.464 17.956 156.576 18.084C156.688 18.204 156.78 18.356 156.852 18.54C156.924 18.716 156.96 18.924 156.96 19.164C156.96 19.5 156.888 19.792 156.744 20.04C156.6 20.288 156.408 20.492 156.168 20.652C155.928 20.812 155.652 20.932 155.34 21.012C155.036 21.092 154.72 21.132 154.392 21.132ZM158.182 14.796H161.05C161.322 14.796 161.582 14.816 161.83 14.856C162.086 14.896 162.314 14.972 162.514 15.084C162.714 15.188 162.874 15.34 162.994 15.54C163.114 15.74 163.174 15.996 163.174 16.308C163.174 16.644 163.094 16.916 162.934 17.124C162.774 17.332 162.55 17.504 162.262 17.64V17.652C162.622 17.724 162.906 17.892 163.114 18.156C163.33 18.42 163.438 18.76 163.438 19.176C163.438 19.44 163.39 19.684 163.294 19.908C163.206 20.132 163.078 20.324 162.91 20.484C162.742 20.644 162.542 20.772 162.31 20.868C162.078 20.956 161.826 21 161.554 21H158.182V14.796ZM161.362 20.136C161.698 20.136 161.95 20.04 162.118 19.848C162.294 19.648 162.382 19.4 162.382 19.104C162.382 18.824 162.29 18.6 162.106 18.432C161.922 18.264 161.614 18.18 161.182 18.18H159.19V20.136H161.362ZM160.942 17.34C161.382 17.34 161.686 17.26 161.854 17.1C162.03 16.94 162.118 16.728 162.118 16.464C162.118 16.208 162.034 16.012 161.866 15.876C161.698 15.732 161.39 15.66 160.942 15.66H159.19V17.34H160.942ZM167.339 21.132C166.843 21.132 166.407 21.052 166.031 20.892C165.663 20.724 165.351 20.496 165.095 20.208C164.839 19.912 164.647 19.568 164.519 19.176C164.391 18.784 164.327 18.36 164.327 17.904C164.327 17.448 164.391 17.024 164.519 16.632C164.647 16.232 164.839 15.888 165.095 15.6C165.351 15.304 165.663 15.072 166.031 14.904C166.407 14.736 166.843 14.652 167.339 14.652C167.827 14.652 168.259 14.736 168.635 14.904C169.011 15.072 169.327 15.304 169.583 15.6C169.839 15.888 170.031 16.232 170.159 16.632C170.287 17.024 170.351 17.448 170.351 17.904C170.351 18.36 170.287 18.784 170.159 19.176C170.031 19.568 169.839 19.912 169.583 20.208C169.327 20.496 169.011 20.724 168.635 20.892C168.259 21.052 167.827 21.132 167.339 21.132ZM167.339 20.244C167.603 20.244 167.851 20.192 168.083 20.088C168.323 19.984 168.531 19.836 168.707 19.644C168.883 19.444 169.019 19.2 169.115 18.912C169.219 18.616 169.271 18.28 169.271 17.904C169.271 17.528 169.219 17.196 169.115 16.908C169.019 16.612 168.883 16.364 168.707 16.164C168.531 15.964 168.323 15.812 168.083 15.708C167.851 15.604 167.603 15.552 167.339 15.552C167.075 15.552 166.823 15.604 166.583 15.708C166.351 15.812 166.147 15.964 165.971 16.164C165.795 16.364 165.655 16.612 165.551 16.908C165.455 17.196 165.407 17.528 165.407 17.904C165.407 18.28 165.455 18.616 165.551 18.912C165.655 19.2 165.795 19.444 165.971 19.644C166.147 19.836 166.351 19.984 166.583 20.088C166.823 20.192 167.075 20.244 167.339 20.244ZM170.821 20.1H171.553C171.641 19.932 171.729 19.704 171.817 19.416C171.913 19.12 171.997 18.796 172.069 18.444C172.149 18.084 172.213 17.704 172.261 17.304C172.309 16.904 172.333 16.512 172.333 16.128V14.796H176.821V20.1H177.661V22.884H176.689V21H171.793V22.884H170.821V20.1ZM175.801 20.1V15.696H173.329V16.224C173.329 16.616 173.305 17.008 173.257 17.4C173.217 17.784 173.161 18.148 173.089 18.492C173.017 18.836 172.937 19.148 172.849 19.428C172.769 19.708 172.689 19.932 172.609 20.1H175.801ZM181.188 21.132C180.716 21.132 180.296 21.056 179.928 20.904C179.568 20.752 179.264 20.536 179.016 20.256C178.776 19.976 178.592 19.644 178.464 19.26C178.344 18.876 178.284 18.448 178.284 17.976C178.284 17.512 178.344 17.08 178.464 16.68C178.584 16.272 178.764 15.92 179.004 15.624C179.252 15.32 179.556 15.084 179.916 14.916C180.284 14.74 180.716 14.652 181.212 14.652C181.564 14.652 181.892 14.696 182.196 14.784C182.508 14.864 182.78 14.992 183.012 15.168C183.252 15.344 183.448 15.568 183.6 15.84C183.752 16.104 183.848 16.42 183.888 16.788H182.832C182.752 16.396 182.584 16.092 182.328 15.876C182.072 15.66 181.728 15.552 181.296 15.552C180.928 15.552 180.62 15.62 180.372 15.756C180.124 15.892 179.924 16.072 179.772 16.296C179.628 16.52 179.524 16.78 179.46 17.076C179.396 17.364 179.364 17.664 179.364 17.976C179.364 18.264 179.396 18.544 179.46 18.816C179.532 19.088 179.64 19.332 179.784 19.548C179.928 19.756 180.112 19.924 180.336 20.052C180.568 20.18 180.848 20.244 181.176 20.244C181.68 20.244 182.072 20.112 182.352 19.848C182.64 19.584 182.816 19.212 182.88 18.732H183.924C183.812 19.508 183.528 20.104 183.072 20.52C182.616 20.928 181.988 21.132 181.188 21.132ZM186.565 15.696H184.345V14.796H189.805V15.696H187.585V21H186.565V15.696ZM190.62 14.796H193.488C193.76 14.796 194.02 14.816 194.268 14.856C194.524 14.896 194.752 14.972 194.952 15.084C195.152 15.188 195.312 15.34 195.432 15.54C195.552 15.74 195.612 15.996 195.612 16.308C195.612 16.644 195.532 16.916 195.372 17.124C195.212 17.332 194.988 17.504 194.7 17.64V17.652C195.06 17.724 195.344 17.892 195.552 18.156C195.768 18.42 195.876 18.76 195.876 19.176C195.876 19.44 195.828 19.684 195.732 19.908C195.644 20.132 195.516 20.324 195.348 20.484C195.18 20.644 194.98 20.772 194.748 20.868C194.516 20.956 194.264 21 193.992 21H190.62V14.796ZM193.8 20.136C194.136 20.136 194.388 20.04 194.556 19.848C194.732 19.648 194.82 19.4 194.82 19.104C194.82 18.824 194.728 18.6 194.544 18.432C194.36 18.264 194.052 18.18 193.62 18.18H191.628V20.136H193.8ZM193.38 17.34C193.82 17.34 194.124 17.26 194.292 17.1C194.468 16.94 194.556 16.728 194.556 16.464C194.556 16.208 194.472 16.012 194.304 15.876C194.136 15.732 193.828 15.66 193.38 15.66H191.628V17.34H193.38ZM199.776 21.132C199.28 21.132 198.844 21.052 198.468 20.892C198.1 20.724 197.788 20.496 197.532 20.208C197.276 19.912 197.084 19.568 196.956 19.176C196.828 18.784 196.764 18.36 196.764 17.904C196.764 17.448 196.828 17.024 196.956 16.632C197.084 16.232 197.276 15.888 197.532 15.6C197.788 15.304 198.1 15.072 198.468 14.904C198.844 14.736 199.28 14.652 199.776 14.652C200.264 14.652 200.696 14.736 201.072 14.904C201.448 15.072 201.764 15.304 202.02 15.6C202.276 15.888 202.468 16.232 202.596 16.632C202.724 17.024 202.788 17.448 202.788 17.904C202.788 18.36 202.724 18.784 202.596 19.176C202.468 19.568 202.276 19.912 202.02 20.208C201.764 20.496 201.448 20.724 201.072 20.892C200.696 21.052 200.264 21.132 199.776 21.132ZM199.776 20.244C200.04 20.244 200.288 20.192 200.52 20.088C200.76 19.984 200.968 19.836 201.144 19.644C201.32 19.444 201.456 19.2 201.552 18.912C201.656 18.616 201.708 18.28 201.708 17.904C201.708 17.528 201.656 17.196 201.552 16.908C201.456 16.612 201.32 16.364 201.144 16.164C200.968 15.964 200.76 15.812 200.52 15.708C200.288 15.604 200.04 15.552 199.776 15.552C199.512 15.552 199.26 15.604 199.02 15.708C198.788 15.812 198.584 15.964 198.408 16.164C198.232 16.364 198.092 16.612 197.988 16.908C197.892 17.196 197.844 17.528 197.844 17.904C197.844 18.28 197.892 18.616 197.988 18.912C198.092 19.2 198.232 19.444 198.408 19.644C198.584 19.836 198.788 19.984 199.02 20.088C199.26 20.192 199.512 20.244 199.776 20.244ZM122.768 25.796H127.832V32H126.812V26.696H123.788V32H122.768V25.796ZM132.042 32.132C131.546 32.132 131.11 32.052 130.734 31.892C130.366 31.724 130.054 31.496 129.798 31.208C129.542 30.912 129.35 30.568 129.222 30.176C129.094 29.784 129.03 29.36 129.03 28.904C129.03 28.448 129.094 28.024 129.222 27.632C129.35 27.232 129.542 26.888 129.798 26.6C130.054 26.304 130.366 26.072 130.734 25.904C131.11 25.736 131.546 25.652 132.042 25.652C132.53 25.652 132.962 25.736 133.338 25.904C133.714 26.072 134.03 26.304 134.286 26.6C134.542 26.888 134.734 27.232 134.862 27.632C134.99 28.024 135.054 28.448 135.054 28.904C135.054 29.36 134.99 29.784 134.862 30.176C134.734 30.568 134.542 30.912 134.286 31.208C134.03 31.496 133.714 31.724 133.338 31.892C132.962 32.052 132.53 32.132 132.042 32.132ZM132.042 31.244C132.306 31.244 132.554 31.192 132.786 31.088C133.026 30.984 133.234 30.836 133.41 30.644C133.586 30.444 133.722 30.2 133.818 29.912C133.922 29.616 133.974 29.28 133.974 28.904C133.974 28.528 133.922 28.196 133.818 27.908C133.722 27.612 133.586 27.364 133.41 27.164C133.234 26.964 133.026 26.812 132.786 26.708C132.554 26.604 132.306 26.552 132.042 26.552C131.778 26.552 131.526 26.604 131.286 26.708C131.054 26.812 130.85 26.964 130.674 27.164C130.498 27.364 130.358 27.612 130.254 27.908C130.158 28.196 130.11 28.528 130.11 28.904C130.11 29.28 130.158 29.616 130.254 29.912C130.358 30.2 130.498 30.444 130.674 30.644C130.85 30.836 131.054 30.984 131.286 31.088C131.526 31.192 131.778 31.244 132.042 31.244ZM136.208 32.072C136.104 32.072 135.996 32.06 135.884 32.036C135.772 32.02 135.68 32.004 135.608 31.988V31.088C135.688 31.112 135.76 31.128 135.824 31.136C135.896 31.144 135.964 31.148 136.028 31.148C136.292 31.148 136.492 31.044 136.628 30.836C136.772 30.628 136.876 30.308 136.94 29.876C137.012 29.444 137.056 28.892 137.072 28.22C137.088 27.54 137.104 26.732 137.12 25.796H141.476V32H140.456V26.696H138.104C138.08 27.424 138.052 28.116 138.02 28.772C137.996 29.42 137.928 29.988 137.816 30.476C137.704 30.964 137.524 31.352 137.276 31.64C137.028 31.928 136.672 32.072 136.208 32.072ZM143.654 34.472C143.534 34.472 143.414 34.464 143.294 34.448C143.174 34.432 143.058 34.404 142.946 34.364V33.428C143.042 33.46 143.138 33.492 143.234 33.524C143.338 33.556 143.442 33.572 143.546 33.572C143.754 33.572 143.922 33.524 144.05 33.428C144.178 33.332 144.29 33.192 144.386 33.008L144.806 31.964L142.346 25.796H143.498L145.31 30.872H145.334L147.074 25.796H148.154L145.454 32.816C145.334 33.12 145.214 33.376 145.094 33.584C144.982 33.792 144.854 33.96 144.71 34.088C144.574 34.224 144.418 34.32 144.242 34.376C144.074 34.44 143.878 34.472 143.654 34.472ZM149.018 25.796H154.082V32H153.062V26.696H150.038V32H149.018V25.796ZM155.652 25.796H156.672V26.636H156.696C156.864 26.292 157.128 26.044 157.488 25.892C157.848 25.732 158.244 25.652 158.676 25.652C159.156 25.652 159.572 25.74 159.924 25.916C160.284 26.092 160.58 26.332 160.812 26.636C161.052 26.932 161.232 27.276 161.352 27.668C161.472 28.06 161.532 28.476 161.532 28.916C161.532 29.364 161.472 29.784 161.352 30.176C161.24 30.56 161.064 30.9 160.824 31.196C160.592 31.484 160.296 31.712 159.936 31.88C159.584 32.048 159.172 32.132 158.7 32.132C158.54 32.132 158.368 32.116 158.184 32.084C158 32.052 157.816 32 157.632 31.928C157.448 31.856 157.272 31.76 157.104 31.64C156.944 31.512 156.808 31.356 156.696 31.172H156.672V34.364H155.652V25.796ZM158.592 31.244C158.936 31.244 159.228 31.176 159.468 31.04C159.708 30.904 159.9 30.724 160.044 30.5C160.188 30.276 160.292 30.02 160.356 29.732C160.42 29.444 160.452 29.148 160.452 28.844C160.452 28.556 160.412 28.276 160.332 28.004C160.26 27.724 160.144 27.476 159.984 27.26C159.832 27.044 159.632 26.872 159.384 26.744C159.144 26.616 158.86 26.552 158.532 26.552C158.188 26.552 157.896 26.62 157.656 26.756C157.416 26.892 157.22 27.072 157.068 27.296C156.916 27.512 156.804 27.76 156.732 28.04C156.668 28.32 156.636 28.604 156.636 28.892C156.636 29.196 156.672 29.492 156.744 29.78C156.816 30.06 156.928 30.308 157.08 30.524C157.24 30.74 157.444 30.916 157.692 31.052C157.94 31.18 158.24 31.244 158.592 31.244ZM162.729 25.796H163.749V30.86L166.677 25.796H167.985V32H166.965V26.936L164.037 32H162.729V25.796ZM174.362 32H169.526V25.796H170.546V31.1H173.474V25.796H174.494V31.1H175.334V33.884H174.362V32ZM178.939 32.132C178.443 32.132 178.007 32.052 177.631 31.892C177.263 31.732 176.955 31.508 176.707 31.22C176.459 30.932 176.271 30.588 176.143 30.188C176.023 29.788 175.963 29.352 175.963 28.88C175.963 28.416 176.035 27.988 176.179 27.596C176.323 27.196 176.523 26.852 176.779 26.564C177.043 26.276 177.351 26.052 177.703 25.892C178.063 25.732 178.455 25.652 178.879 25.652C179.431 25.652 179.887 25.768 180.247 26C180.615 26.224 180.907 26.512 181.123 26.864C181.347 27.216 181.499 27.6 181.579 28.016C181.667 28.432 181.703 28.828 181.687 29.204H177.043C177.035 29.476 177.067 29.736 177.139 29.984C177.211 30.224 177.327 30.44 177.487 30.632C177.647 30.816 177.851 30.964 178.099 31.076C178.347 31.188 178.639 31.244 178.975 31.244C179.407 31.244 179.759 31.144 180.031 30.944C180.311 30.744 180.495 30.44 180.583 30.032H181.591C181.455 30.736 181.155 31.264 180.691 31.616C180.227 31.96 179.643 32.132 178.939 32.132ZM180.607 28.304C180.591 28.064 180.535 27.836 180.439 27.62C180.351 27.404 180.227 27.22 180.067 27.068C179.915 26.908 179.731 26.784 179.515 26.696C179.307 26.6 179.075 26.552 178.819 26.552C178.555 26.552 178.315 26.6 178.099 26.696C177.891 26.784 177.711 26.908 177.559 27.068C177.407 27.228 177.287 27.416 177.199 27.632C177.111 27.84 177.059 28.064 177.043 28.304H180.607ZM182.745 25.796H187.809V32H186.789V26.696H183.765V32H182.745V25.796ZM192.018 32.132C191.522 32.132 191.086 32.052 190.71 31.892C190.342 31.724 190.03 31.496 189.774 31.208C189.518 30.912 189.326 30.568 189.198 30.176C189.07 29.784 189.006 29.36 189.006 28.904C189.006 28.448 189.07 28.024 189.198 27.632C189.326 27.232 189.518 26.888 189.774 26.6C190.03 26.304 190.342 26.072 190.71 25.904C191.086 25.736 191.522 25.652 192.018 25.652C192.506 25.652 192.938 25.736 193.314 25.904C193.69 26.072 194.006 26.304 194.262 26.6C194.518 26.888 194.71 27.232 194.838 27.632C194.966 28.024 195.03 28.448 195.03 28.904C195.03 29.36 194.966 29.784 194.838 30.176C194.71 30.568 194.518 30.912 194.262 31.208C194.006 31.496 193.69 31.724 193.314 31.892C192.938 32.052 192.506 32.132 192.018 32.132ZM192.018 31.244C192.282 31.244 192.53 31.192 192.762 31.088C193.002 30.984 193.21 30.836 193.386 30.644C193.562 30.444 193.698 30.2 193.794 29.912C193.898 29.616 193.95 29.28 193.95 28.904C193.95 28.528 193.898 28.196 193.794 27.908C193.698 27.612 193.562 27.364 193.386 27.164C193.21 26.964 193.002 26.812 192.762 26.708C192.53 26.604 192.282 26.552 192.018 26.552C191.754 26.552 191.502 26.604 191.262 26.708C191.03 26.812 190.826 26.964 190.65 27.164C190.474 27.364 190.334 27.612 190.23 27.908C190.134 28.196 190.086 28.528 190.086 28.904C190.086 29.28 190.134 29.616 190.23 29.912C190.334 30.2 190.474 30.444 190.65 30.644C190.826 30.836 191.03 30.984 191.262 31.088C191.502 31.192 191.754 31.244 192.018 31.244ZM196.233 25.796H199.101C199.373 25.796 199.633 25.816 199.881 25.856C200.137 25.896 200.365 25.972 200.565 26.084C200.765 26.188 200.925 26.34 201.045 26.54C201.165 26.74 201.225 26.996 201.225 27.308C201.225 27.644 201.145 27.916 200.985 28.124C200.825 28.332 200.601 28.504 200.313 28.64V28.652C200.673 28.724 200.957 28.892 201.165 29.156C201.381 29.42 201.489 29.76 201.489 30.176C201.489 30.44 201.441 30.684 201.345 30.908C201.257 31.132 201.129 31.324 200.961 31.484C200.793 31.644 200.593 31.772 200.361 31.868C200.129 31.956 199.877 32 199.605 32H196.233V25.796ZM199.413 31.136C199.749 31.136 200.001 31.04 200.169 30.848C200.345 30.648 200.433 30.4 200.433 30.104C200.433 29.824 200.341 29.6 200.157 29.432C199.973 29.264 199.665 29.18 199.233 29.18H197.241V31.136H199.413ZM198.993 28.34C199.433 28.34 199.737 28.26 199.905 28.1C200.081 27.94 200.169 27.728 200.169 27.464C200.169 27.208 200.085 27.012 199.917 26.876C199.749 26.732 199.441 26.66 198.993 26.66H197.241V28.34H198.993Z" fill="white"/>
<mask id="mask0_422_23057" style="mask-type:luminance" maskUnits="userSpaceOnUse" x="5" y="7" width="29" height="32">
<path d="M5.83447 7.06567H33.5635V38.0898H5.83447V7.06567Z" fill="white"/>
</mask>
<g mask="url(#mask0_422_23057)">
<path d="M7.16986 14.2829C7.30453 16.074 7.62055 19.139 8.32999 22.1859C8.81846 24.2868 9.49304 26.3817 10.4186 28.03C11.7934 30.4799 13.7156 32.4274 15.5261 33.8817C17.1715 35.2037 18.7248 36.121 19.7019 36.6413C20.6743 36.124 22.2231 35.2096 23.8686 33.8892C25.6774 32.4365 27.6028 30.4858 28.9821 28.03C29.9032 26.3847 30.5778 24.2913 31.0648 22.1888C31.7725 19.1405 32.0901 16.074 32.2248 14.2829C30.4582 13.4722 29.206 12.4014 28.3242 11.2961C27.5165 10.284 27.0144 9.24181 26.7059 8.34999H12.6948C12.3303 9.40263 11.6981 10.6644 10.6061 11.839C9.76519 12.7474 8.64601 13.606 7.16986 14.2829ZM7.08674 22.4686C6.29577 19.0623 5.97963 15.6529 5.8647 13.9234L5.83447 13.4708L6.2564 13.2948C7.75364 12.6736 8.85783 11.8495 9.66537 10.9788C10.7635 9.79673 11.3291 8.52135 11.6165 7.53779L11.751 7.07764H27.6481L27.7843 7.53779C28.0339 8.39204 28.4936 9.46734 29.3225 10.5051C30.1557 11.5473 31.3733 12.5609 33.1383 13.2948L33.5602 13.4708L33.53 13.9234C33.415 15.6529 33.0974 19.0652 32.3079 22.4716C31.7982 24.6749 31.0828 26.8826 30.0953 28.6466C28.6222 31.2709 26.5804 33.3433 24.6672 34.8788C22.7645 36.4067 20.9738 37.4189 19.9938 37.9212L19.7003 38.07L19.41 37.9212C18.4239 37.4159 16.6316 36.4008 14.7274 34.8713C12.8112 33.3328 10.7725 31.2634 9.30547 28.6466C8.31475 26.8795 7.59788 24.6703 7.08674 22.4686Z" fill="white"/>
</g>
<path d="M19.3264 12.6876H21.8653C24.5368 12.5296 25.2247 12.5034 25.6215 12.5034H26.0447C31.3082 12.5034 34.0592 13.9499 34.0592 16.6854C34.0592 18.0267 33.4244 19.0001 32.1813 19.6312C31.335 20.052 30.7266 20.3152 29.0072 20.657C30.7266 20.8673 31.4671 21.1306 32.446 21.6303C34.0328 22.498 34.9059 23.9445 34.9059 25.6281C34.9059 26.601 34.5618 27.5744 33.9534 28.2845C32.7634 29.6787 31.0966 30.2308 27.8435 30.2308H19.3264V29.8624C20.1464 29.5207 20.3843 29.0999 20.3843 28.1265V14.7919C20.3843 13.8186 20.1464 13.3978 19.3264 13.056V12.6876ZM24.6957 20.3414H25.9125C28.7425 20.3414 30.1709 19.1314 30.1709 16.7116C30.1709 14.5025 28.7956 13.1874 26.5473 13.1874C25.1984 13.1874 24.6957 13.6082 24.6957 14.7391V20.3414ZM24.6957 21.2096V28.1003C24.6957 29.1789 25.2247 29.5735 26.6267 29.5735C27.3409 29.5735 27.9225 29.4683 28.3988 29.2841C29.6951 28.7315 30.6208 27.1008 30.6208 25.3125C30.6208 22.6032 29.0598 21.2096 26.0183 21.2096H24.6957Z" fill="white"/>
<path d="M51.7 31.4147V31.993C46.4896 30.0205 43.9239 27.2851 42.6539 22.1302C42.4687 22.1564 42.3102 22.1564 42.2308 22.1564H41.8871C41.5697 22.1564 41.305 22.1564 40.8024 22.0774V28.1266C40.8024 29.1 41.0403 29.5208 41.8603 29.8625V30.2309H35.4067V29.8625C36.2267 29.5208 36.4646 29.1 36.4646 28.1266V14.792C36.4646 13.8187 36.2267 13.3979 35.4067 13.0561V12.6877H37.443C37.893 12.6877 38.713 12.6616 39.7972 12.5825C41.0671 12.5035 42.5218 12.4512 43.3944 12.4512C48.288 12.4512 50.9594 14.1604 50.9594 17.2905C50.9594 18.6579 50.351 19.9207 49.2137 20.7623C48.7379 21.1307 47.8911 21.4986 46.7011 21.867C48.1822 26.7329 50.0074 30.3623 51.7 31.4147ZM40.8024 15.0286V21.262C41.1466 21.2882 41.3845 21.3149 41.5697 21.3149H42.125C45.1138 21.3149 46.648 19.9469 46.648 17.3166C46.648 15.0024 44.8496 13.1875 42.6276 13.1875C41.3313 13.1875 40.8024 13.6873 40.8024 15.0286Z" fill="white"/>
<path d="M53.92 24.6023L52.809 28.1264C52.7295 28.3107 52.7032 28.521 52.7032 28.7052C52.7032 29.3102 53.1 29.652 54.2373 29.889V30.2308H49.688V29.889C50.7195 29.5996 51.2485 29.1522 51.6453 28.1264L56.7767 12.5295H60.1624L65.1881 28.1264C65.5317 29.0998 66.008 29.6786 66.6428 29.889V30.2308H60.1887V29.889C60.7971 29.6786 61.035 29.4154 61.035 28.8894C61.035 28.6791 60.9824 28.4158 60.8766 28.1264L59.7393 24.6023H53.92ZM54.3431 23.5499H59.3951L56.8562 15.791L54.3431 23.5499Z" fill="white"/>
<path d="M74.4706 30.2307H71.1117L65.9271 14.7918C65.5834 13.8184 65.1335 13.3186 64.4724 13.0293V12.6875H70.9001V13.0293C70.3707 13.2396 70.1065 13.5819 70.1065 14.0288C70.1065 14.2654 70.1591 14.5024 70.2649 14.7918L74.3916 27.2587L78.3325 14.7918C78.3857 14.6076 78.412 14.4234 78.412 14.2392C78.412 13.5819 78.0415 13.2663 76.9042 13.0293V12.6875H81.3214V13.0293C80.3693 13.3186 79.8136 13.8184 79.4699 14.7918L74.4706 30.2307Z" fill="white"/>
<path d="M93.487 12.6875L93.7781 16.0541H93.1697C92.3497 14.1602 91.186 13.3448 89.0961 13.3448H87.6678C86.4246 13.3448 85.922 13.7656 85.922 14.818V20.078H88.3293C90.0219 20.078 90.8682 19.5259 91.0534 18.2636H91.6092V22.7611H91.0534C90.974 21.4198 90.2071 20.841 88.3293 20.841H85.922V27.8898C85.922 29.2311 86.3983 29.5734 88.1704 29.5734H89.4666C91.9266 29.5734 93.3281 28.6262 94.1749 26.3905L94.7302 26.6009L93.7781 30.2307H80.5264V29.8623C81.3463 29.5205 81.5842 29.0998 81.5842 28.1264V14.7918C81.5842 13.8184 81.3463 13.3977 80.5264 13.0559V12.6875H93.487Z" fill="white"/>
<path d="M111.286 31.4147V31.993C106.076 30.0205 103.51 27.2851 102.24 22.1302C102.055 22.1564 101.897 22.1564 101.817 22.1564H101.474C101.156 22.1564 100.891 22.1564 100.389 22.0774V28.1266C100.389 29.1 100.627 29.5208 101.447 29.8625V30.2309H94.9932V29.8625C95.8131 29.5208 96.051 29.1 96.051 28.1266V14.792C96.051 13.8187 95.8131 13.3979 94.9932 13.0561V12.6877H97.0295C97.4794 12.6877 98.2994 12.6616 99.3836 12.5825C100.654 12.5035 102.108 12.4512 102.981 12.4512C107.874 12.4512 110.546 14.1604 110.546 17.2905C110.546 18.6579 109.937 19.9207 108.8 20.7623C108.324 21.1307 107.478 21.4986 106.288 21.867C107.769 26.7329 109.594 30.3623 111.286 31.4147ZM100.389 15.0286V21.262C100.733 21.2882 100.971 21.3149 101.156 21.3149H101.711C104.7 21.3149 106.234 19.9469 106.234 17.3166C106.234 15.0024 104.436 13.1875 102.214 13.1875C100.918 13.1875 100.389 13.6873 100.389 15.0286Z" fill="white"/>
<mask id="mask1_422_23057" style="mask-type:luminance" maskUnits="userSpaceOnUse" x="15" y="12" width="5" height="5">
<path d="M15.3503 12.3884H19.2602V16.4041H15.3503V12.3884Z" fill="white"/>
</mask>
<g mask="url(#mask1_422_23057)">
<path d="M15.9919 13.1404L16.033 13.2591C16.0761 13.4244 16.1349 13.5839 16.1876 13.7453L16.2191 13.8211L16.2269 13.8581C16.2425 13.893 16.2563 13.93 16.268 13.9669L16.3483 14.0039C16.4461 14.0215 16.5461 14.0234 16.642 14.0389C16.7888 14.0584 16.9279 14.1128 17.0728 14.1361C17.2177 14.1595 17.3782 14.1984 17.527 14.2412C17.5428 14.354 17.5545 14.4688 17.5858 14.5795C17.6171 14.6904 17.6289 14.8286 17.6642 14.9492C17.6994 15.0697 17.7151 15.1824 17.7367 15.2991L17.7581 15.3595C17.7738 15.4548 17.7954 15.55 17.813 15.6454C17.906 15.6894 17.996 15.7386 18.0832 15.7931C18.3496 15.9545 18.6159 16.116 18.8939 16.256C18.9977 16.3143 19.1074 16.3669 19.2249 16.3941C19.3424 16.4213 19.4696 16.33 19.5851 16.2793C19.8201 16.1705 20.0374 16.0304 20.2646 15.9059C20.3821 15.8339 20.4957 15.7563 20.6151 15.6901C20.6601 15.6625 20.7019 15.6307 20.7405 15.5948C20.7582 15.4689 20.7829 15.3445 20.8149 15.2213C20.8658 15.0152 20.9187 14.8091 20.9539 14.599L20.9656 14.5446C20.9852 14.4649 20.9911 14.3851 21.0127 14.3073L21.0185 14.2509C21.1125 14.2081 21.2163 14.1945 21.3181 14.175C21.4552 14.142 21.5943 14.1167 21.7314 14.0798C21.9193 14.0312 22.1152 14.0155 22.305 13.9727C22.3364 13.8308 22.3931 13.6967 22.4303 13.5546C22.4989 13.364 22.5479 13.1696 22.6086 12.9771C22.6477 12.8934 22.6477 12.7864 22.7182 12.7222C22.8572 12.6659 22.9983 12.6114 23.1334 12.5414V12.3916C22.9356 12.4266 22.732 12.4247 22.5342 12.4655C22.3364 12.5064 22.0994 12.5005 21.886 12.5433C21.6725 12.5861 21.4787 12.5687 21.279 12.6037C21.1693 12.6016 21.0617 12.6308 20.952 12.6289L20.9304 12.6445L20.7678 12.6523C20.6857 12.6697 20.6015 12.6697 20.5211 12.6892C20.4408 12.7086 20.3233 12.6989 20.2255 12.7164C20.0022 12.734 19.775 12.7417 19.5538 12.7787C19.4696 12.7826 19.3873 12.7864 19.3051 12.7961C18.9839 12.7864 18.6647 12.734 18.3456 12.7203C18.2144 12.7028 18.0793 12.7067 17.952 12.6717C17.5918 12.6562 17.2372 12.5784 16.875 12.5667C16.7497 12.5491 16.6243 12.5453 16.501 12.5141C16.3267 12.5025 16.1544 12.4772 15.9801 12.4675C15.7844 12.4266 15.5846 12.415 15.3868 12.4131L15.3613 12.5064C15.5356 12.6134 15.7295 12.6814 15.9038 12.7864C15.9213 12.9051 15.9625 13.0218 15.9919 13.1404Z" fill="white"/>
</g>
<mask id="mask2_422_23057" style="mask-type:luminance" maskUnits="userSpaceOnUse" x="11" y="13" width="9" height="18">
<path d="M11.3276 13.8911H19.2602V30.3281H11.3276V13.8911Z" fill="white"/>
</mask>
<g mask="url(#mask2_422_23057)">
<path d="M26.7443 22.8275C26.5916 22.701 26.4879 22.526 26.3331 22.4016C26.1687 22.2285 25.9983 22.0593 25.8241 21.896C25.6869 21.7501 25.5401 21.61 25.403 21.4642C25.4304 21.3903 25.4872 21.332 25.5225 21.2619C25.6066 21.1044 25.7202 20.9623 25.8025 20.8049C25.8848 20.6474 25.9807 20.5481 26.0493 20.4081C26.1178 20.268 26.2098 20.1281 26.3077 19.9997C26.4154 19.8403 26.5133 19.675 26.619 19.5135C26.713 19.389 26.7816 19.249 26.8795 19.1265C26.9774 19.0039 27.0831 18.8251 27.1928 18.6811L27.187 18.6499C27.0577 18.5975 26.946 18.51 26.8149 18.4614C26.5584 18.3213 26.2882 18.2085 26.0258 18.0782C25.7241 17.9284 25.4109 17.8078 25.1191 17.6425C24.9957 17.5862 24.8723 17.5297 24.7431 17.4811C24.7431 17.7689 24.7901 18.0548 24.7803 18.3427C24.7278 18.2843 24.6795 18.2228 24.6354 18.1579C24.5375 18.0062 24.4004 17.8837 24.2966 17.7359C24.1929 17.5881 24.0597 17.4383 23.9618 17.2749C23.8212 17.0999 23.6906 16.9178 23.5702 16.7285C23.4527 16.5671 23.3254 16.4115 23.2137 16.2462C23.112 16.1177 23.0023 16.0011 22.9122 15.8669L22.971 15.8378L23.0219 15.8338L23.0414 15.8202C23.0958 15.8114 23.1493 15.799 23.202 15.7832C23.3137 15.7561 23.4273 15.7424 23.5349 15.7054C23.7072 15.6724 23.8776 15.6218 24.0519 15.5966C24.2262 15.5713 24.3633 15.5207 24.5199 15.4896L24.5728 15.4799C24.646 15.4602 24.7205 15.4465 24.796 15.4391C24.8058 15.6919 24.8548 15.9427 24.8587 16.1975C24.89 16.5087 24.9194 16.8179 24.939 17.1292C24.9703 17.1874 24.9997 17.2517 25.0584 17.2846C25.1172 17.3177 25.2053 17.3216 25.2777 17.345C25.3502 17.3683 25.4716 17.3916 25.5558 17.4461L25.6439 17.4499C25.6843 17.419 25.7267 17.3912 25.7712 17.3663L25.7908 17.308C25.7673 17.2167 25.7595 17.1213 25.7418 17.0299C25.6988 16.8568 25.6988 16.6779 25.6576 16.5048C25.6445 16.4484 25.638 16.3915 25.638 16.3337L25.6224 16.3122C25.6086 16.0964 25.5617 15.8844 25.5401 15.6685C25.5301 15.556 25.5132 15.4445 25.4891 15.334C25.4755 15.2057 25.4617 15.0773 25.4403 14.9509C25.4226 14.8712 25.3541 14.8244 25.2915 14.7797C25.1024 14.6243 24.9262 14.4559 24.7626 14.2741C24.6354 14.1593 24.5238 14.031 24.4004 13.9123L24.2829 13.9337C24.0676 13.9921 23.8424 13.9998 23.6329 14.0776L23.5839 14.0854C23.2843 14.1768 22.9768 14.2429 22.6753 14.3304C22.5069 14.379 22.3365 14.4239 22.1661 14.4647L22.127 14.4783C22.0369 14.5016 21.9449 14.5191 21.8548 14.5366C21.7177 14.5892 21.565 14.5813 21.4318 14.6475L21.426 14.7117C21.3946 14.8964 21.3672 15.0812 21.3202 15.262C21.3124 15.3535 21.2908 15.4449 21.2888 15.5363L21.3437 15.5479C21.5199 15.6822 21.6747 15.8436 21.8391 15.9913C21.9684 16.0964 22.078 16.2209 22.2034 16.3298C22.3287 16.4386 22.4148 16.5106 22.5147 16.606C22.6557 16.7324 22.7908 16.8646 22.9416 16.9794C23.0924 17.0941 23.2412 17.1991 23.3666 17.3372C23.4331 17.4052 23.4644 17.4948 23.5251 17.5666C23.5858 17.6386 23.6171 17.7418 23.6798 17.8215C23.7424 17.9012 23.811 18.0296 23.8815 18.1307C23.9521 18.2318 24.0108 18.3368 24.0851 18.4322C24.2359 18.6227 24.3594 18.8328 24.5043 19.0273C24.6138 19.1692 24.6922 19.3307 24.8058 19.4687C24.8861 19.5602 24.9488 19.6651 25.0211 19.7625C24.9311 19.8693 24.841 19.9763 24.747 20.0795C24.5669 20.307 24.375 20.5268 24.1851 20.7465C23.9951 20.9974 23.7679 21.2172 23.5839 21.4719C23.4802 21.6022 23.3685 21.7228 23.2705 21.8571C23.1727 21.9912 23.0708 22.0748 22.9827 22.1935C22.828 22.3899 22.6596 22.5766 22.5147 22.7808C22.4481 22.8897 22.4285 23.0161 22.3777 23.1309C22.3404 23.2164 22.3228 23.3078 22.2857 23.3916C22.2269 23.5665 22.176 23.7454 22.1054 23.9167L22.0996 23.9535L22.0682 24.0313C22.0428 24.111 22.0212 24.1908 21.9918 24.2686L21.9801 24.3036C21.9292 24.4689 21.8607 24.6284 21.8039 24.7918C21.7471 24.9551 21.708 25.0776 21.6609 25.2216L21.6374 25.278C21.6041 25.3947 21.6061 25.5153 21.5826 25.6339C21.5748 25.7195 21.5767 25.807 21.5709 25.8944L21.5748 25.8789C21.5493 26.1279 21.5532 26.3808 21.4925 26.6239C21.4063 26.5927 21.3378 26.5304 21.2614 26.4799C21.1932 26.4319 21.1305 26.3774 21.0735 26.3165C20.7875 26.4923 20.4872 26.6394 20.1727 26.758C19.9867 26.8513 19.7948 26.9253 19.6068 27.0128C19.5011 27.0517 19.4051 27.1178 19.2935 27.1392C19.2171 27.1334 19.1505 27.0945 19.0821 27.0652C18.9136 26.9836 18.7335 26.9272 18.5709 26.8358C18.2262 26.6919 17.866 26.5635 17.5664 26.3359C17.4352 26.4196 17.2961 26.4974 17.1747 26.5947C17.1278 26.5577 17.0827 26.5227 17.0358 26.4877C17.0123 26.1104 17.0004 25.733 16.9535 25.3596L16.9378 25.3422V25.2838C16.8751 25.1322 16.8399 24.9688 16.7773 24.8171L16.7361 24.7198C16.6773 24.5254 16.6069 24.3328 16.5404 24.1403L16.5011 24.0392C16.4678 23.9477 16.4424 23.8544 16.4032 23.7649C16.3895 23.7202 16.3778 23.6734 16.3661 23.6287L16.3386 23.5958C16.3207 23.5211 16.2953 23.4491 16.2622 23.3798C16.2171 23.2281 16.1644 23.0784 16.1115 22.9286C16.0703 22.81 15.994 22.7108 15.9117 22.6174C15.7962 22.4852 15.6983 22.3373 15.5808 22.2051C15.3556 21.9465 15.1403 21.682 14.9287 21.4136C14.5821 20.9877 14.2199 20.5773 13.8674 20.1552C13.7577 20.0249 13.6402 19.9005 13.5404 19.7644C13.6637 19.5873 13.8106 19.4279 13.9183 19.2412C14.0162 19.0973 14.1239 18.9592 14.216 18.8114C14.3256 18.6207 14.4803 18.4633 14.5919 18.2746C14.6762 18.156 14.7485 18.0315 14.8386 17.9168C14.9287 17.802 15.0051 17.6406 15.0893 17.5045C15.2107 17.2983 15.4163 17.1679 15.5945 17.0163C15.761 16.8977 15.8921 16.7401 16.0527 16.6157C16.272 16.4115 16.4933 16.2112 16.7087 16.0031C16.8967 15.8378 17.0729 15.6607 17.2707 15.509C17.2531 15.4176 17.2414 15.3243 17.2257 15.2329C17.1728 15.0384 17.1611 14.8362 17.1101 14.6397C17.0024 14.6066 16.8889 14.5931 16.7792 14.5755C16.6695 14.558 16.511 14.5172 16.3778 14.4802C16.1957 14.4297 16.0115 14.3869 15.8295 14.3343L15.7805 14.313C15.7217 14.2954 15.661 14.2818 15.6023 14.2663C15.4809 14.2216 15.3537 14.204 15.2323 14.1671C15.1109 14.1301 14.9679 14.103 14.8406 14.0562C14.6786 14.0135 14.5148 13.9798 14.349 13.9551L14.2708 13.9337C14.2385 13.9242 14.206 13.9165 14.1728 13.9104C14.0456 14.0037 13.9417 14.1262 13.8283 14.2371C13.6696 14.3908 13.5227 14.5561 13.3543 14.7019C13.2878 14.7564 13.2349 14.8284 13.1625 14.8789C13.1331 14.9041 13.0899 14.9256 13.0938 14.9684C13.0919 15.0656 13.086 15.1629 13.086 15.2581L13.0704 15.2835C13.0684 15.3884 13.0351 15.4877 13.0273 15.5907C13.0156 15.6646 13.0137 15.7385 12.996 15.8124C12.9937 15.8642 12.9871 15.9153 12.9764 15.9661C12.947 16.1392 12.9294 16.3161 12.8981 16.4893C12.8668 16.6623 12.8452 16.7829 12.8276 16.9327C12.8094 16.9904 12.7977 17.0494 12.7923 17.1096C12.7806 17.2302 12.7513 17.3508 12.7513 17.4733L12.8804 17.4189C13.0293 17.3975 13.186 17.3955 13.3269 17.3372L13.37 17.3294L13.5071 17.2885L13.5579 17.2691C13.5717 17.1038 13.6128 16.9424 13.6225 16.7771C13.6461 16.5379 13.6873 16.2987 13.7029 16.0575C13.7186 15.8163 13.7322 15.6336 13.7558 15.4234C13.8164 15.4429 13.8791 15.4604 13.9417 15.478C14.165 15.5246 14.3883 15.5732 14.6134 15.616C14.8386 15.6588 15.1148 15.7405 15.3693 15.7813L15.428 15.8047C15.5015 15.8227 15.576 15.8357 15.6513 15.8436C15.5976 15.9221 15.5389 15.9967 15.475 16.0672C15.3144 16.2909 15.1461 16.5067 14.9835 16.7285C14.8211 16.9502 14.6565 17.17 14.5097 17.4033C14.4412 17.5006 14.357 17.5881 14.2883 17.6853C14.2014 17.8057 14.1074 17.9205 14.0064 18.0296C13.9104 18.1365 13.838 18.2611 13.7342 18.3621C13.7342 18.1949 13.7636 18.0296 13.7871 17.8643C13.7945 17.7344 13.8095 17.6053 13.8322 17.4772C13.65 17.5589 13.4562 17.6192 13.2839 17.7203C13.1115 17.8215 12.9079 17.8934 12.7179 17.9771C12.528 18.0607 12.3263 18.1773 12.1226 18.263C11.8505 18.3776 11.5959 18.5255 11.3276 18.6461C11.3864 18.7219 11.4353 18.8056 11.4881 18.8853C11.5861 19.0253 11.6801 19.1673 11.7721 19.3092C11.8192 19.3812 11.8818 19.4435 11.9229 19.5193C12.06 19.7799 12.2479 20.0094 12.3948 20.2642C12.5416 20.5189 12.6846 20.7446 12.8433 20.9799C12.9215 21.1141 13.0254 21.2327 13.0977 21.3709C13.1115 21.4038 13.1487 21.4369 13.1271 21.4739C13.0664 21.5789 12.9705 21.6548 12.8843 21.7384C12.712 21.9115 12.5338 22.0807 12.3596 22.2518C12.2911 22.3315 12.2205 22.4093 12.1442 22.4832C12.0678 22.5572 11.9836 22.6739 11.8896 22.7556C11.7956 22.8372 11.684 22.9772 11.5607 23.0647L11.5548 23.1212C11.6449 23.1367 11.733 23.1601 11.8231 23.1775C11.9131 23.1951 12.06 23.2261 12.1775 23.2592L12.2362 23.2807C12.3282 23.3001 12.4183 23.3254 12.5103 23.3507C12.6023 23.3759 12.7101 23.3817 12.804 23.4148C13.0156 23.479 13.2349 23.516 13.4503 23.5685L13.5266 23.5898C13.6134 23.6039 13.699 23.6233 13.7832 23.6482C13.8448 23.665 13.9075 23.6766 13.9711 23.6833C13.7968 23.9711 13.7048 24.2978 13.5404 24.5914C13.5149 24.6362 13.4718 24.6868 13.5051 24.7393C13.5991 24.9143 13.6813 25.0972 13.7616 25.2799C13.9458 25.5542 14.1141 25.84 14.2883 26.1201C14.4705 26.3613 14.6017 26.6336 14.7799 26.8786C14.84 26.9927 14.9013 27.1061 14.9639 27.2189C14.9718 26.9681 14.966 26.7191 14.9738 26.4683C14.9894 26.3477 14.9855 26.2252 14.9953 26.1026C15.0129 26.015 14.9992 25.9275 15.0207 25.84C15.0364 25.5172 15.0541 25.1963 15.0775 24.8734C15.0835 24.8365 15.0775 24.7937 15.1069 24.7666C15.2087 24.64 15.3399 24.5428 15.4535 24.4281C15.5671 24.3133 15.663 24.2492 15.7571 24.1461C15.851 24.0431 15.9313 23.9963 16.0156 23.9186C16.0115 23.9846 16.0135 24.0528 15.9959 24.1169C15.9813 24.1988 15.9708 24.2811 15.9646 24.364C15.9254 24.4709 15.9195 24.5856 15.8979 24.6965C15.8901 24.7236 15.8823 24.749 15.8745 24.7762L15.8706 24.8345L15.8549 24.8579C15.8432 24.9863 15.8197 25.1146 15.802 25.241L15.7785 25.3188C15.759 25.4219 15.7433 25.5269 15.7198 25.63C15.6964 25.733 15.6767 25.8984 15.6493 26.0307C15.6288 26.1036 15.6125 26.1775 15.6003 26.2523C15.5808 26.4294 15.526 26.6005 15.4927 26.7755L15.4711 26.8339C15.4515 26.9117 15.434 26.9895 15.4163 27.0692L15.3928 27.1275C15.383 27.1858 15.3634 27.2442 15.3615 27.3025C15.3908 27.4134 15.4574 27.5087 15.5103 27.6079C15.5632 27.7071 15.6376 27.8355 15.6923 27.954C15.7566 28.0492 15.812 28.149 15.8588 28.2536C15.9528 28.3975 16.0156 28.5589 16.1154 28.697C16.2152 28.8351 16.2759 28.9926 16.3581 29.1385C16.3922 29.2087 16.4299 29.2768 16.4717 29.3427L16.4836 29.3778C16.5736 29.51 16.6402 29.6578 16.7244 29.7939C16.7322 29.7395 16.7419 29.685 16.7538 29.6325L16.7773 29.5566C16.7831 29.5314 16.789 29.5042 16.7948 29.4788L16.8125 29.4167L16.8261 29.403C16.8422 29.2961 16.8644 29.1904 16.8928 29.0859C16.9261 28.9732 16.9358 28.8546 16.979 28.7437L17.0298 28.5511C17.2961 28.7729 17.5742 28.9829 17.8543 29.1852C17.9325 29.2435 17.9932 29.3213 18.0735 29.3758C18.1539 29.4302 18.2674 29.5313 18.3731 29.5975C18.4577 29.6504 18.5354 29.7121 18.6061 29.7823C18.7296 29.899 18.8804 29.9865 19.0076 30.1012C19.0977 30.1712 19.1799 30.2529 19.268 30.3248C19.3326 30.2704 19.3933 30.2101 19.46 30.1576C19.6499 30.0156 19.8242 29.8562 20.0142 29.7142C20.1492 29.5917 20.3079 29.5003 20.4429 29.3797C20.5781 29.2591 20.7602 29.1229 20.9266 29.0043C21.1205 28.8526 21.3163 28.7029 21.5199 28.5648C21.5395 28.6426 21.5572 28.7184 21.5787 28.7962L21.6022 28.8546C21.6179 28.9382 21.6296 29.0238 21.6512 29.1074C21.7001 29.2241 21.706 29.3524 21.7315 29.4769L21.751 29.5372C21.7706 29.6209 21.7862 29.7064 21.8039 29.792L21.8333 29.7823C21.8529 29.7298 21.8776 29.6799 21.9077 29.6325C22.0311 29.4672 22.1074 29.2746 22.2112 29.0977C22.315 28.9206 22.4325 28.697 22.552 28.5025C22.7712 28.0844 23.012 27.678 23.2137 27.2501C23.1903 27.2034 23.1688 27.1567 23.1472 27.1081C23.0904 26.8961 23.0395 26.6802 22.9945 26.4663C22.9612 26.3301 22.9573 26.1901 22.922 26.0539C22.8867 25.9178 22.8731 25.7409 22.83 25.5892C22.7869 25.4374 22.785 25.3325 22.7576 25.204C22.7301 25.0757 22.7203 24.928 22.6811 24.7937C22.642 24.6595 22.6381 24.4786 22.595 24.3231C22.552 24.1675 22.546 24.0489 22.5323 23.9107C22.6322 24.0003 22.7301 24.0917 22.8358 24.1714C22.9474 24.2939 23.0826 24.3911 23.2001 24.5078C23.2999 24.5953 23.388 24.6965 23.4919 24.7782C23.4919 24.959 23.5134 25.138 23.5154 25.3188C23.5295 25.4468 23.5354 25.5752 23.5329 25.7039L23.5506 25.7253C23.5506 25.8206 23.5467 25.9178 23.5623 26.0112C23.5917 26.4118 23.5917 26.8124 23.5956 27.2131C23.6193 27.187 23.6396 27.1586 23.6564 27.1275C23.6858 27.0128 23.7523 26.9136 23.813 26.8144C23.9188 26.6316 24.0499 26.4625 24.1517 26.2757C24.3182 26.0462 24.4572 25.7992 24.6099 25.5619C24.6648 25.486 24.6981 25.3966 24.7548 25.3207C24.8743 25.1632 24.9213 24.9688 25.0075 24.7937C25.0271 24.7509 25.0505 24.7062 25.0388 24.6576C25.0271 24.609 24.9762 24.5293 24.9507 24.4631C24.9252 24.3969 24.8782 24.3152 24.8508 24.2395C24.8077 24.0839 24.7079 23.9516 24.657 23.798L24.6021 23.6833C24.7509 23.6502 24.8998 23.6151 25.0486 23.584L25.1289 23.5627C25.2053 23.5432 25.2835 23.5276 25.3619 23.5121C25.4774 23.4752 25.5969 23.4576 25.7163 23.4363L25.7751 23.4129C25.8671 23.3916 25.9591 23.3759 26.0493 23.3526L26.1061 23.3312C26.2054 23.3142 26.3034 23.2908 26.3998 23.2612C26.5173 23.2281 26.6367 23.2067 26.7542 23.1756L26.952 23.1367L27.0381 23.1289C26.9441 23.02 26.8344 22.9325 26.7443 22.8275Z" fill="white"/>
</g>
<mask id="mask3_422_23057" style="mask-type:luminance" maskUnits="userSpaceOnUse" x="14" y="16" width="6" height="9">
<path d="M14.2273 16.5281H19.2604V24.4703H14.2273V16.5281Z" fill="white"/>
</mask>
<g mask="url(#mask3_422_23057)">
<path d="M22.5814 21.3748C22.7713 21.2211 22.9494 21.0519 23.1492 20.908C23.2138 20.8633 23.2667 20.805 23.3254 20.7524C23.4312 20.6571 23.5526 20.5774 23.6524 20.4742C23.7524 20.3712 23.8737 20.2934 23.9815 20.198C24.0891 20.1028 24.1772 20.0308 24.2791 19.953C24.1968 19.8344 24.093 19.7314 24.0029 19.6185C23.9129 19.5057 23.7837 19.3793 23.6858 19.251C23.5429 19.0565 23.3587 18.8912 23.2589 18.6676C23.2099 18.5489 23.1473 18.4361 23.0963 18.3175C23.0669 18.2532 23.0376 18.1852 22.9827 18.1386C22.8732 18.0393 22.7752 17.9284 22.6577 17.839C22.4632 17.6613 22.2634 17.4896 22.0585 17.3236C21.9693 17.2378 21.876 17.1568 21.7785 17.0805C21.6297 16.9697 21.4926 16.8451 21.3517 16.7266C21.2831 16.6701 21.2068 16.6196 21.142 16.5573L21.1107 16.5515C20.7428 16.7549 20.3629 16.9331 19.9711 17.0863C19.74 17.166 19.5227 17.2769 19.2994 17.3742C19.2015 17.3723 19.1173 17.3158 19.0273 17.2866C18.7042 17.1213 18.3517 17.0222 18.0286 16.8569C17.8269 16.7576 17.6194 16.6682 17.4255 16.5496C17.0847 16.8472 16.7264 17.1213 16.3876 17.4209C16.2271 17.5454 16.0783 17.6834 15.9254 17.8177C15.8079 17.9013 15.712 18.0082 15.6023 18.0997C15.5332 18.1588 15.4842 18.2314 15.4555 18.3175C15.43 18.3875 15.3889 18.4497 15.3596 18.5178C15.3008 18.6287 15.2656 18.7531 15.1853 18.8523C15.0012 19.0837 14.8132 19.3133 14.6134 19.533C14.5041 19.6717 14.3853 19.802 14.2571 19.9239L14.265 19.9491C14.4529 20.0873 14.6155 20.2565 14.7976 20.4024C14.9013 20.4781 14.9836 20.5793 15.0855 20.659C15.2891 20.8127 15.4692 20.9955 15.6807 21.1414C15.8922 21.2872 16.0841 21.4623 16.2681 21.6431C16.4169 21.7734 16.5619 21.9115 16.7186 22.034C16.6912 22.2305 16.6324 22.4211 16.6031 22.6174C16.5573 22.784 16.5266 22.9533 16.511 23.1251C16.648 23.2399 16.8282 23.2826 16.9829 23.3701L17.0143 23.4499L17.0299 23.5258C17.0769 23.6715 17.0789 23.8291 17.1259 23.975C17.1473 24.0664 17.1689 24.1598 17.2061 24.2473C17.2434 24.3348 17.2492 24.3756 17.2687 24.4398C17.3628 24.3445 17.4626 24.2512 17.5508 24.1519C17.5469 24.0722 17.5605 23.9692 17.492 23.9108C17.6879 23.8291 17.8915 23.7669 18.0853 23.6775C18.2792 23.5879 18.4848 23.5024 18.6865 23.4187C18.851 23.339 19.0154 23.2612 19.1878 23.1971C19.229 23.1795 19.2759 23.1524 19.321 23.1795C19.4639 23.2437 19.6108 23.304 19.7538 23.3721C20.0082 23.4849 20.2628 23.5919 20.5194 23.7007C20.6662 23.765 20.8131 23.8447 20.9757 23.8583C21.001 23.9692 20.9952 24.0839 21.0422 24.1889C21.0891 24.294 21.1107 24.3776 21.1969 24.4339C21.2753 24.3445 21.3281 24.2356 21.3712 24.1267C21.4143 24.0178 21.4221 23.9556 21.4593 23.8759C21.4809 23.7261 21.4867 23.5743 21.5063 23.4226C21.6707 23.302 21.8763 23.2496 22.0389 23.1232C22.0409 23.0026 22.0076 22.8878 21.9919 22.7692C21.9411 22.6583 21.9351 22.5338 21.9078 22.4152C21.8882 22.3414 21.8588 22.2713 21.8353 22.2013C21.8275 22.1604 21.7961 22.1157 21.8059 22.0749C22.0605 21.8376 22.3151 21.5984 22.5814 21.3748ZM21.6316 19.7547C21.5435 19.7956 21.4573 19.8422 21.3673 19.8753C21.2772 19.9083 21.2243 19.8694 21.1597 19.8986C21.0598 19.9919 20.9854 20.1067 20.9032 20.2137C20.8209 20.3207 20.7328 20.4295 20.6447 20.5346C20.651 20.5809 20.6615 20.6262 20.676 20.6707C20.6995 20.8536 20.725 21.0382 20.7602 21.2192C20.7641 21.3261 20.7641 21.4331 20.7701 21.5401L20.7935 21.6023C20.7974 21.6412 20.8444 21.6957 20.7995 21.7267C20.6643 21.7385 20.5272 21.7248 20.3921 21.7306C20.2099 21.9135 20.0024 22.0652 19.8203 22.2499C19.6582 22.4359 19.48 22.6051 19.2858 22.7575C19.2074 22.6953 19.1173 22.6505 19.0448 22.5805C18.9372 22.4717 18.8295 22.3666 18.7316 22.2499C18.5474 22.0943 18.3889 21.9115 18.193 21.7714C18.0746 21.7491 17.9551 21.74 17.8347 21.7443L17.7877 21.6839C17.7857 21.5595 17.7838 21.437 17.7896 21.3144C17.8007 21.2429 17.8066 21.1709 17.8073 21.0986L17.825 21.081C17.8386 20.871 17.8896 20.6629 17.8876 20.451C17.7635 20.3636 17.6643 20.254 17.59 20.1223C17.5626 20.0755 17.541 20.0269 17.5038 19.988C17.4665 19.9491 17.3628 19.9162 17.2864 19.8947C17.1787 19.8636 17.0789 19.8169 16.975 19.778C16.8713 19.7391 16.7577 19.6769 16.6461 19.6361C16.605 19.6224 16.5619 19.6088 16.5325 19.5777C16.3191 19.3638 16.1487 19.1129 15.9528 18.8834C15.9372 18.8639 15.9157 18.8387 15.9314 18.8114C15.996 18.687 16.0958 18.5898 16.1938 18.4905C16.2466 18.4322 16.3347 18.4342 16.3934 18.3836C16.5031 18.3777 16.607 18.4127 16.7126 18.4342L16.8419 18.4731L16.9007 18.4924C17.0201 18.541 17.1493 18.5586 17.2728 18.6014L17.4117 18.6481L17.4704 18.6676C17.5723 18.7084 17.6801 18.7317 17.7857 18.7667L17.8289 18.7725L17.868 18.8134C17.8827 18.8941 17.9016 18.9738 17.9248 19.0526C17.9464 19.1751 17.962 19.2996 17.9816 19.4221C18.0306 19.5602 18.0266 19.708 18.052 19.8481C18.0638 19.887 18.0716 19.9259 18.0814 19.9667C18.1108 20.2059 18.1461 20.4452 18.1578 20.6863C18.15 20.7562 18.1442 20.8263 18.1304 20.8963C18.1284 21.0694 18.0794 21.2386 18.0814 21.4117C18.6023 21.4097 19.1212 21.4195 19.6421 21.4137C19.9339 21.4137 20.2257 21.4097 20.5174 21.4137C20.5037 21.3709 20.492 21.3301 20.4783 21.2872C20.4645 21.2444 20.4723 21.2386 20.4704 21.2134C20.4371 21.0519 20.4235 20.8886 20.4038 20.7252C20.3902 20.6006 20.4038 20.4742 20.4293 20.3537C20.4548 20.2331 20.4548 20.0795 20.4861 19.9472C20.5173 19.7818 20.5402 19.6151 20.5546 19.4474L20.5703 19.426L20.5762 19.3677C20.6094 19.1927 20.6349 19.0137 20.674 18.8387L20.6956 18.794C20.8112 18.7433 20.9325 18.7162 21.0539 18.6811L21.0912 18.6714L21.15 18.65L21.2282 18.6248C21.4828 18.547 21.7394 18.475 21.9959 18.4049C22.0722 18.3777 22.1506 18.4069 22.2289 18.4088C22.413 18.4808 22.5911 18.6306 22.6069 18.8406C22.5892 18.9593 22.5069 19.0526 22.4247 19.1343C22.3052 19.2626 22.2015 19.4066 22.0683 19.5213C22.0359 19.5537 22.0065 19.5887 21.9802 19.6263L21.9312 19.6419C21.8176 19.6439 21.7295 19.7118 21.6316 19.7547Z" fill="white"/>
</g>
<path d="M17.1141 18.9378C17.0553 18.8561 16.9456 18.8426 16.8615 18.7978C16.7283 18.7317 16.5854 18.6947 16.4405 18.6616C16.3714 18.6953 16.3003 18.7239 16.2271 18.7473C16.2584 18.8153 16.3113 18.8698 16.3621 18.9242C16.4405 19.0214 16.5188 19.1187 16.5971 19.2159C16.6441 19.2763 16.7205 19.2996 16.791 19.3229C16.9187 19.3835 17.0512 19.4308 17.1885 19.4649C17.2206 19.4737 17.2531 19.4759 17.286 19.4715C17.3191 19.467 17.3498 19.4565 17.3784 19.4396C17.3784 19.4027 17.3784 19.3657 17.3765 19.3288C17.308 19.1848 17.2022 19.0682 17.1141 18.9378Z" fill="white"/>
<mask id="mask4_422_23057" style="mask-type:luminance" maskUnits="userSpaceOnUse" x="17" y="24" width="3" height="3">
<path d="M17.4719 24.0669H19.2602V26.5178H17.4719V24.0669Z" fill="white"/>
</mask>
<g mask="url(#mask4_422_23057)">
<path d="M20.4273 24.8266C20.3156 24.743 20.2118 24.6516 20.1003 24.5661C19.8907 24.4085 19.687 24.2353 19.4442 24.1246L19.3855 24.107L19.3091 24.0837C19.2484 24.0951 19.189 24.1114 19.1309 24.1323L19.035 24.1654C18.8646 24.2413 18.7216 24.3599 18.5767 24.4726C18.4985 24.5543 18.3927 24.601 18.3104 24.6768C18.1675 24.8072 18.0031 24.9122 17.8562 25.0386C17.7856 25.0989 17.7308 25.1748 17.6623 25.2389C17.5938 25.3031 17.5664 25.3556 17.5585 25.4295C17.5487 25.497 17.533 25.5631 17.5115 25.6279C17.4978 25.6688 17.488 25.7115 17.4763 25.7524L17.5703 25.8263C17.7125 25.8785 17.8516 25.9383 17.9873 26.0052C18.0892 26.0441 18.1929 26.083 18.2929 26.1277C18.4612 26.2036 18.6414 26.2483 18.8059 26.3319L18.8372 26.3398C18.9723 26.3923 19.0996 26.4602 19.2367 26.5109C19.3483 26.5148 19.4442 26.4505 19.5442 26.4136C19.8418 26.2775 20.1531 26.1744 20.4527 26.0421C20.5957 25.98 20.7366 25.9138 20.8835 25.8633C20.9402 25.8394 20.9944 25.8109 21.046 25.7777C21.0363 25.6473 21.0089 25.5209 20.9814 25.3945C20.8815 25.1378 20.627 24.9977 20.4273 24.8266Z" fill="white"/>
</g>
</svg>
